<?xml version="1.0" encoding="UTF-8" standalone="no"?>
<!DOCTYPE svg PUBLIC "-//W3C//DTD SVG 1.1//EN" "http://www.w3.org/Graphics/SVG/1.1/DTD/svg11.dtd">
<svg width="100%" height="100%" viewBox="0 0 800 800" version="1.1" xmlns="http://www.w3.org/2000/svg" xmlns:xlink="http://www.w3.org/1999/xlink" xml:space="preserve" xmlns:serif="http://www.serif.com/" style="fill-rule:evenodd;clip-rule:evenodd;stroke-linecap:round;stroke-linejoin:round;stroke-miterlimit:1.5;">
    <g>
        <g transform="matrix(1,0,0,1.18409,0,-1.42637)">
            <path d="M168.133,331.867C168.07,330.376 168.039,328.872 168.039,327.361L168.039,114.286C168.039,55.486 215.777,7.748 274.576,7.748L515.738,7.748C574.538,7.748 622.276,55.486 622.276,114.286L622.276,327.361C622.276,328.872 622.244,330.376 622.182,331.867C622.244,332.698 622.276,333.537 622.276,334.383L622.276,400.726C622.276,419.034 607.412,433.898 589.104,433.898L201.211,433.898C182.903,433.898 168.039,419.034 168.039,400.726L168.039,334.383C168.039,333.537 168.07,332.698 168.133,331.867Z" style="fill:none;stroke:white;stroke-width:41.06px;"/>
        </g>
        <g transform="matrix(4.64356,0,0,1.2517,120.816,262.371)">
            <path d="M107.99,93.705C107.99,74.06 103.691,58.111 98.396,58.111L19.764,58.111C14.469,58.111 10.169,74.06 10.169,93.705L10.169,164.891C10.169,184.535 14.469,200.484 19.764,200.484L98.396,200.484C103.691,200.484 107.99,184.535 107.99,164.891L107.99,93.705Z" style="fill:none;stroke:white;stroke-width:13.23px;"/>
        </g>
        <g transform="matrix(1,0,0,1.22269,-5.81114,-19.5739)">
            <path d="M366.964,569.976L366.964,446.973C366.964,440.826 371.954,435.835 378.102,435.835L400.378,435.835C406.525,435.835 411.516,440.826 411.516,446.973L411.516,569.976L516.251,569.976C517.281,569.661 518.374,569.492 519.506,569.492L541.782,569.492C543.625,569.492 545.364,569.94 546.896,570.734C549.033,571.663 550.749,573.379 551.677,575.516C552.472,577.048 552.92,578.787 552.92,580.63L552.92,649.395C552.92,655.542 547.929,660.533 541.782,660.533L519.506,660.533C513.359,660.533 508.368,655.542 508.368,649.395L508.368,606.78L411.516,606.78L411.516,655.206C411.516,661.353 406.525,666.344 400.378,666.344L378.102,666.344C371.954,666.344 366.964,661.353 366.964,655.206L366.964,606.78L269.143,606.78L269.143,649.395C269.143,655.542 264.152,660.533 258.005,660.533L235.729,660.533C229.582,660.533 224.591,655.542 224.591,649.395L224.591,580.63C224.591,578.787 225.039,577.048 225.833,575.516C226.762,573.379 228.479,571.663 230.615,570.734C232.147,569.94 233.886,569.492 235.729,569.492L258.005,569.492C259.137,569.492 260.23,569.661 261.26,569.976L366.964,569.976Z" style="fill:white;stroke:white;stroke-width:22.38px;"/>
        </g>
    </g>
</svg>
